<svg id="visual" viewBox="0 0 900 250" width="900" height="250" xmlns="http://www.w3.org/2000/svg" xmlns:xlink="http://www.w3.org/1999/xlink" version="1.1"><g stroke-width="1" stroke-linejoin="bevel"><path d="M428 97.7L362 75.7L413 118.3Z" fill="#d0f7f2" stroke="#d0f7f2"></path><path d="M423 68.7L362 75L362 75.7Z" fill="#b8e6df" stroke="#b8e6df"></path><path d="M428 97.7L423 68.7L362 75.7Z" fill="#a0d5cd" stroke="#a0d5cd"></path><path d="M337 89.7L353 112.7L362 75.7Z" fill="#a0d5cd" stroke="#a0d5cd"></path><path d="M362 75.7L353 112.7L413 118.3Z" fill="#dcfffb" stroke="#dcfffb"></path><path d="M353 112.7L361 126.3L413 118.3Z" fill="#c4eee9" stroke="#c4eee9"></path><path d="M362 75L337 89.7L362 75.7Z" fill="#acddd6" stroke="#acddd6"></path><path d="M353 112.7L310 104L361 126.3Z" fill="#c4eee9" stroke="#c4eee9"></path><path d="M423 68.7L403 23.3L362 75Z" fill="#c4eee9" stroke="#c4eee9"></path><path d="M321 19.3L316 88.3L337 89.7Z" fill="#acddd6" stroke="#acddd6"></path><path d="M361 126.3L412 153L413 118.3Z" fill="#beeae4" stroke="#beeae4"></path><path d="M413 118.3L412 153L428 97.7Z" fill="#a6d9d2" stroke="#a6d9d2"></path><path d="M321 19.3L337 89.7L362 75Z" fill="#acddd6" stroke="#acddd6"></path><path d="M337 89.7L310 104L353 112.7Z" fill="#d6fbf6" stroke="#d6fbf6"></path><path d="M316 88.3L310 104L337 89.7Z" fill="#b8e6df" stroke="#b8e6df"></path><path d="M419 208.3L429 202L412 153Z" fill="#acddd6" stroke="#acddd6"></path><path d="M428 97.7L478 67.7L423 68.7Z" fill="#acddd6" stroke="#acddd6"></path><path d="M423 68.7L478 67.7L403 23.3Z" fill="#b8e6df" stroke="#b8e6df"></path><path d="M502 167L478 67.7L428 97.7Z" fill="#d6fbf6" stroke="#d6fbf6"></path><path d="M403 -10.3L391 0L403 23.3Z" fill="#b8e6df" stroke="#b8e6df"></path><path d="M403 23.3L355 0L362 75Z" fill="#a0d5cd" stroke="#a0d5cd"></path><path d="M391 0L381 0L403 23.3Z" fill="#acddd6" stroke="#acddd6"></path><path d="M381 0L355 0L403 23.3Z" fill="#dcfffb" stroke="#dcfffb"></path><path d="M488 0L403 -10.3L403 23.3Z" fill="#b2e2db" stroke="#b2e2db"></path><path d="M391 0L403 -10.3L381 0Z" fill="#dcfffb" stroke="#dcfffb"></path><path d="M381 0L333 -45.3L355 0Z" fill="#caf2ed" stroke="#caf2ed"></path><path d="M355 0L321 19.3L362 75Z" fill="#c4eee9" stroke="#c4eee9"></path><path d="M316 88.3L277 65.3L310 104Z" fill="#caf2ed" stroke="#caf2ed"></path><path d="M377 208L412 153L361 126.3Z" fill="#acddd6" stroke="#acddd6"></path><path d="M412 153L502 167L428 97.7Z" fill="#d6fbf6" stroke="#d6fbf6"></path><path d="M321 19.3L277 65.3L316 88.3Z" fill="#d0f7f2" stroke="#d0f7f2"></path><path d="M307 181.3L361 126.3L310 104Z" fill="#b8e6df" stroke="#b8e6df"></path><path d="M351 213.7L377 208L361 126.3Z" fill="#beeae4" stroke="#beeae4"></path><path d="M377 208L419 208.3L412 153Z" fill="#c4eee9" stroke="#c4eee9"></path><path d="M251 165L307 181.3L310 104Z" fill="#b2e2db" stroke="#b2e2db"></path><path d="M478 67.7L488 0L403 23.3Z" fill="#acddd6" stroke="#acddd6"></path><path d="M307 181.3L351 213.7L361 126.3Z" fill="#a0d5cd" stroke="#a0d5cd"></path><path d="M377 208L408 250L419 208.3Z" fill="#beeae4" stroke="#beeae4"></path><path d="M487 222.3L502 167L429 202Z" fill="#d6fbf6" stroke="#d6fbf6"></path><path d="M429 202L502 167L412 153Z" fill="#b8e6df" stroke="#b8e6df"></path><path d="M478 67.7L553 74.7L488 0Z" fill="#b2e2db" stroke="#b2e2db"></path><path d="M283 0L275 24.3L321 19.3Z" fill="#a6d9d2" stroke="#a6d9d2"></path><path d="M321 19.3L275 24.3L277 65.3Z" fill="#caf2ed" stroke="#caf2ed"></path><path d="M333 -45.3L283 0L321 19.3Z" fill="#c4eee9" stroke="#c4eee9"></path><path d="M333 -45.3L321 19.3L355 0Z" fill="#dcfffb" stroke="#dcfffb"></path><path d="M494 -26.3L333 -45.3L403 -10.3Z" fill="#b2e2db" stroke="#b2e2db"></path><path d="M403 -10.3L333 -45.3L381 0Z" fill="#dcfffb" stroke="#dcfffb"></path><path d="M543 121.3L542 95.7L478 67.7Z" fill="#dcfffb" stroke="#dcfffb"></path><path d="M502 167L543 121.3L478 67.7Z" fill="#d6fbf6" stroke="#d6fbf6"></path><path d="M554 1.3L494 -26.3L488 0Z" fill="#a6d9d2" stroke="#a6d9d2"></path><path d="M488 0L494 -26.3L403 -10.3Z" fill="#b8e6df" stroke="#b8e6df"></path><path d="M560 126L546 119.7L543 121.3Z" fill="#d6fbf6" stroke="#d6fbf6"></path><path d="M543 121.3L546 119.7L542 95.7Z" fill="#a0d5cd" stroke="#a0d5cd"></path><path d="M564 94.7L553 74.7L542 95.7Z" fill="#b8e6df" stroke="#b8e6df"></path><path d="M542 95.7L553 74.7L478 67.7Z" fill="#beeae4" stroke="#beeae4"></path><path d="M352 250L408 250L377 208Z" fill="#caf2ed" stroke="#caf2ed"></path><path d="M419 208.3L442 250L429 202Z" fill="#dcfffb" stroke="#dcfffb"></path><path d="M246 158.3L251 165L310 104Z" fill="#caf2ed" stroke="#caf2ed"></path><path d="M350 250L352 250L351 213.7Z" fill="#b2e2db" stroke="#b2e2db"></path><path d="M351 213.7L352 250L377 208Z" fill="#d0f7f2" stroke="#d0f7f2"></path><path d="M246 158.3L310 104L231 132.3Z" fill="#dcfffb" stroke="#dcfffb"></path><path d="M442 250L487 222.3L429 202Z" fill="#b2e2db" stroke="#b2e2db"></path><path d="M566 169.3L560 126L543 121.3Z" fill="#d0f7f2" stroke="#d0f7f2"></path><path d="M231 132.3L310 104L277 65.3Z" fill="#caf2ed" stroke="#caf2ed"></path><path d="M350 250L351 213.7L328 250Z" fill="#beeae4" stroke="#beeae4"></path><path d="M328 250L351 213.7L307 181.3Z" fill="#d0f7f2" stroke="#d0f7f2"></path><path d="M408 250L442 250L419 208.3Z" fill="#d0f7f2" stroke="#d0f7f2"></path><path d="M223 0L277 65.3L275 24.3Z" fill="#b8e6df" stroke="#b8e6df"></path><path d="M182 64.7L231 132.3L277 65.3Z" fill="#dcfffb" stroke="#dcfffb"></path><path d="M566 169.3L543 121.3L502 167Z" fill="#acddd6" stroke="#acddd6"></path><path d="M546 119.7L564 94.7L542 95.7Z" fill="#b8e6df" stroke="#b8e6df"></path><path d="M560 126L564 94.7L546 119.7Z" fill="#b2e2db" stroke="#b2e2db"></path><path d="M284 250L328 250L307 181.3Z" fill="#c4eee9" stroke="#c4eee9"></path><path d="M352 250L409 263.7L408 250Z" fill="#c4eee9" stroke="#c4eee9"></path><path d="M408 250L409 263.7L442 250Z" fill="#b2e2db" stroke="#b2e2db"></path><path d="M350 250L409 263.7L352 250Z" fill="#caf2ed" stroke="#caf2ed"></path><path d="M328 250L409 263.7L350 250Z" fill="#a0d5cd" stroke="#a0d5cd"></path><path d="M575 51L554 1.3L553 74.7Z" fill="#acddd6" stroke="#acddd6"></path><path d="M553 74.7L554 1.3L488 0Z" fill="#beeae4" stroke="#beeae4"></path><path d="M597 70.3L575 51L553 74.7Z" fill="#b8e6df" stroke="#b8e6df"></path><path d="M597 70.3L553 74.7L564 94.7Z" fill="#a6d9d2" stroke="#a6d9d2"></path><path d="M487 222.3L542 201.3L502 167Z" fill="#caf2ed" stroke="#caf2ed"></path><path d="M504 250L542 201.3L487 222.3Z" fill="#a0d5cd" stroke="#a0d5cd"></path><path d="M575 51L558 0L554 1.3Z" fill="#caf2ed" stroke="#caf2ed"></path><path d="M554 1.3L566 -57.3L494 -26.3Z" fill="#d6fbf6" stroke="#d6fbf6"></path><path d="M542 201.3L566 169.3L502 167Z" fill="#caf2ed" stroke="#caf2ed"></path><path d="M560 126L583 132.7L564 94.7Z" fill="#beeae4" stroke="#beeae4"></path><path d="M218 -42.3L223 0L283 0Z" fill="#acddd6" stroke="#acddd6"></path><path d="M283 0L223 0L275 24.3Z" fill="#b8e6df" stroke="#b8e6df"></path><path d="M566 169.3L583 132.7L560 126Z" fill="#d0f7f2" stroke="#d0f7f2"></path><path d="M481 270.3L487 222.3L442 250Z" fill="#b8e6df" stroke="#b8e6df"></path><path d="M481 270.3L504 250L487 222.3Z" fill="#b8e6df" stroke="#b8e6df"></path><path d="M262 250L307 181.3L251 165Z" fill="#beeae4" stroke="#beeae4"></path><path d="M262 250L284 250L307 181.3Z" fill="#a0d5cd" stroke="#a0d5cd"></path><path d="M328 250L126 297.3L409 263.7Z" fill="#b2e2db" stroke="#b2e2db"></path><path d="M262 250L251 165L181 176.7Z" fill="#acddd6" stroke="#acddd6"></path><path d="M409 263.7L481 270.3L442 250Z" fill="#caf2ed" stroke="#caf2ed"></path><path d="M583 132.7L597 70.3L564 94.7Z" fill="#a0d5cd" stroke="#a0d5cd"></path><path d="M575 51L629 0L558 0Z" fill="#b2e2db" stroke="#b2e2db"></path><path d="M181 176.7L251 165L246 158.3Z" fill="#dcfffb" stroke="#dcfffb"></path><path d="M284 250L126 297.3L328 250Z" fill="#a0d5cd" stroke="#a0d5cd"></path><path d="M223 0L182 64.7L277 65.3Z" fill="#a6d9d2" stroke="#a6d9d2"></path><path d="M231 132.3L181 176.7L246 158.3Z" fill="#dcfffb" stroke="#dcfffb"></path><path d="M566 169.3L590 179.3L583 132.7Z" fill="#acddd6" stroke="#acddd6"></path><path d="M583 132.7L642 88L597 70.3Z" fill="#dcfffb" stroke="#dcfffb"></path><path d="M542 201.3L590 179.3L566 169.3Z" fill="#a6d9d2" stroke="#a6d9d2"></path><path d="M592 215.3L590 179.3L542 201.3Z" fill="#b8e6df" stroke="#b8e6df"></path><path d="M546 250L542 201.3L504 250Z" fill="#a6d9d2" stroke="#a6d9d2"></path><path d="M333 -45.3L218 -42.3L283 0Z" fill="#acddd6" stroke="#acddd6"></path><path d="M223 0L175 43L182 64.7Z" fill="#acddd6" stroke="#acddd6"></path><path d="M481 270.3L546 250L504 250Z" fill="#beeae4" stroke="#beeae4"></path><path d="M169 0L175 43L223 0Z" fill="#caf2ed" stroke="#caf2ed"></path><path d="M629 0L566 -57.3L558 0Z" fill="#acddd6" stroke="#acddd6"></path><path d="M558 0L566 -57.3L554 1.3Z" fill="#b8e6df" stroke="#b8e6df"></path><path d="M494 -26.3L566 -57.3L333 -45.3Z" fill="#dcfffb" stroke="#dcfffb"></path><path d="M333 -45.3L566 -57.3L218 -42.3Z" fill="#acddd6" stroke="#acddd6"></path><path d="M159 59L164 96.7L182 64.7Z" fill="#a0d5cd" stroke="#a0d5cd"></path><path d="M182 64.7L164 96.7L231 132.3Z" fill="#dcfffb" stroke="#dcfffb"></path><path d="M159 140.3L181 176.7L231 132.3Z" fill="#caf2ed" stroke="#caf2ed"></path><path d="M638 217.7L613 164.3L590 179.3Z" fill="#acddd6" stroke="#acddd6"></path><path d="M590 179.3L613 164.3L583 132.7Z" fill="#beeae4" stroke="#beeae4"></path><path d="M153 0L165 49.3L175 43Z" fill="#a0d5cd" stroke="#a0d5cd"></path><path d="M175 43L165 49.3L182 64.7Z" fill="#acddd6" stroke="#acddd6"></path><path d="M546 250L592 215.3L542 201.3Z" fill="#b2e2db" stroke="#b2e2db"></path><path d="M106 67.7L159 59L165 49.3Z" fill="#beeae4" stroke="#beeae4"></path><path d="M165 49.3L159 59L182 64.7Z" fill="#b8e6df" stroke="#b8e6df"></path><path d="M106 67.7L159 140.3L164 96.7Z" fill="#a0d5cd" stroke="#a0d5cd"></path><path d="M164 96.7L159 140.3L231 132.3Z" fill="#caf2ed" stroke="#caf2ed"></path><path d="M218 -42.3L169 0L223 0Z" fill="#c4eee9" stroke="#c4eee9"></path><path d="M613 164.3L642 88L583 132.7Z" fill="#a6d9d2" stroke="#a6d9d2"></path><path d="M597 70.3L629 0L575 51Z" fill="#caf2ed" stroke="#caf2ed"></path><path d="M634 0L629 0L597 70.3Z" fill="#a0d5cd" stroke="#a0d5cd"></path><path d="M642 88L634 0L597 70.3Z" fill="#a0d5cd" stroke="#a0d5cd"></path><path d="M629 0L634 0L566 -57.3Z" fill="#beeae4" stroke="#beeae4"></path><path d="M138 -9.3L153 0L169 0Z" fill="#b8e6df" stroke="#b8e6df"></path><path d="M169 0L153 0L175 43Z" fill="#acddd6" stroke="#acddd6"></path><path d="M159 59L106 67.7L164 96.7Z" fill="#d6fbf6" stroke="#d6fbf6"></path><path d="M218 -42.3L138 -9.3L169 0Z" fill="#d0f7f2" stroke="#d0f7f2"></path><path d="M153 0L106 67.7L165 49.3Z" fill="#d6fbf6" stroke="#d6fbf6"></path><path d="M181 176.7L171 250L262 250Z" fill="#d6fbf6" stroke="#d6fbf6"></path><path d="M262 250L126 297.3L284 250Z" fill="#a0d5cd" stroke="#a0d5cd"></path><path d="M409 263.7L126 297.3L481 270.3Z" fill="#beeae4" stroke="#beeae4"></path><path d="M162 250L171 250L181 176.7Z" fill="#a0d5cd" stroke="#a0d5cd"></path><path d="M162 250L181 176.7L120 250Z" fill="#dcfffb" stroke="#dcfffb"></path><path d="M652 195.7L659 164.3L613 164.3Z" fill="#acddd6" stroke="#acddd6"></path><path d="M613 164.3L659 164.3L642 88Z" fill="#a6d9d2" stroke="#a6d9d2"></path><path d="M642 88L701 0L634 0Z" fill="#a0d5cd" stroke="#a0d5cd"></path><path d="M621 250L638 217.7L592 215.3Z" fill="#b8e6df" stroke="#b8e6df"></path><path d="M592 215.3L638 217.7L590 179.3Z" fill="#acddd6" stroke="#acddd6"></path><path d="M546 250L621 250L592 215.3Z" fill="#caf2ed" stroke="#caf2ed"></path><path d="M481 270.3L621 250L546 250Z" fill="#acddd6" stroke="#acddd6"></path><path d="M673 218.3L652 195.7L638 217.7Z" fill="#b8e6df" stroke="#b8e6df"></path><path d="M638 217.7L652 195.7L613 164.3Z" fill="#dcfffb" stroke="#dcfffb"></path><path d="M120 250L181 176.7L86 187.7Z" fill="#a0d5cd" stroke="#a0d5cd"></path><path d="M171 250L126 297.3L262 250Z" fill="#b8e6df" stroke="#b8e6df"></path><path d="M138 -9.3L106 67.7L153 0Z" fill="#acddd6" stroke="#acddd6"></path><path d="M673 218.3L679 157L652 195.7Z" fill="#acddd6" stroke="#acddd6"></path><path d="M652 195.7L679 157L659 164.3Z" fill="#c4eee9" stroke="#c4eee9"></path><path d="M659 164.3L679 157L642 88Z" fill="#b2e2db" stroke="#b2e2db"></path><path d="M621 250L673 218.3L638 217.7Z" fill="#caf2ed" stroke="#caf2ed"></path><path d="M70 0L84 70.7L106 67.7Z" fill="#a6d9d2" stroke="#a6d9d2"></path><path d="M106 67.7L62 137L159 140.3Z" fill="#d0f7f2" stroke="#d0f7f2"></path><path d="M86 187.7L181 176.7L159 140.3Z" fill="#a6d9d2" stroke="#a6d9d2"></path><path d="M162 250L126 297.3L171 250Z" fill="#b2e2db" stroke="#b2e2db"></path><path d="M718 75.7L701 0L642 88Z" fill="#b8e6df" stroke="#b8e6df"></path><path d="M634 0L711 -29.3L566 -57.3Z" fill="#beeae4" stroke="#beeae4"></path><path d="M718 75.7L642 88L679 157Z" fill="#dcfffb" stroke="#dcfffb"></path><path d="M62 137L86 187.7L159 140.3Z" fill="#a6d9d2" stroke="#a6d9d2"></path><path d="M754 181L718 75.7L679 157Z" fill="#dcfffb" stroke="#dcfffb"></path><path d="M84 70.7L62 137L106 67.7Z" fill="#d6fbf6" stroke="#d6fbf6"></path><path d="M138 -9.3L70 0L106 67.7Z" fill="#d6fbf6" stroke="#d6fbf6"></path><path d="M84 70.7L51 78L62 137Z" fill="#caf2ed" stroke="#caf2ed"></path><path d="M56 -6.3L70 0L138 -9.3Z" fill="#acddd6" stroke="#acddd6"></path><path d="M718 75.7L719 0L701 0Z" fill="#beeae4" stroke="#beeae4"></path><path d="M701 0L711 -29.3L634 0Z" fill="#c4eee9" stroke="#c4eee9"></path><path d="M725 -13.7L711 -29.3L701 0Z" fill="#d6fbf6" stroke="#d6fbf6"></path><path d="M48 244.3L126 297.3L120 250Z" fill="#d0f7f2" stroke="#d0f7f2"></path><path d="M120 250L126 297.3L162 250Z" fill="#dcfffb" stroke="#dcfffb"></path><path d="M48 244.3L120 250L86 187.7Z" fill="#acddd6" stroke="#acddd6"></path><path d="M70 0L51 78L84 70.7Z" fill="#caf2ed" stroke="#caf2ed"></path><path d="M728 234.3L715 212.7L724 250Z" fill="#dcfffb" stroke="#dcfffb"></path><path d="M673 218.3L715 212.7L679 157Z" fill="#c4eee9" stroke="#c4eee9"></path><path d="M771 24.3L725 -13.7L719 0Z" fill="#beeae4" stroke="#beeae4"></path><path d="M719 0L725 -13.7L701 0Z" fill="#caf2ed" stroke="#caf2ed"></path><path d="M771 24.3L719 0L718 75.7Z" fill="#acddd6" stroke="#acddd6"></path><path d="M218 -42.3L56 -6.3L138 -9.3Z" fill="#a0d5cd" stroke="#a0d5cd"></path><path d="M70 0L46 0L51 78Z" fill="#beeae4" stroke="#beeae4"></path><path d="M56 -6.3L46 0L70 0Z" fill="#acddd6" stroke="#acddd6"></path><path d="M18 114.3L41 163.3L62 137Z" fill="#a0d5cd" stroke="#a0d5cd"></path><path d="M62 137L41 163.3L86 187.7Z" fill="#d0f7f2" stroke="#d0f7f2"></path><path d="M18 114.3L62 137L51 78Z" fill="#b2e2db" stroke="#b2e2db"></path><path d="M724 250L715 212.7L673 218.3Z" fill="#beeae4" stroke="#beeae4"></path><path d="M715 212.7L754 181L679 157Z" fill="#d0f7f2" stroke="#d0f7f2"></path><path d="M761 257.7L724 250L621 250Z" fill="#d0f7f2" stroke="#d0f7f2"></path><path d="M621 250L724 250L673 218.3Z" fill="#acddd6" stroke="#acddd6"></path><path d="M761 257.7L725 250L724 250Z" fill="#d0f7f2" stroke="#d0f7f2"></path><path d="M724 250L725 250L728 234.3Z" fill="#a0d5cd" stroke="#a0d5cd"></path><path d="M747 205.7L715 212.7L728 234.3Z" fill="#beeae4" stroke="#beeae4"></path><path d="M747 205.7L754 181L715 212.7Z" fill="#acddd6" stroke="#acddd6"></path><path d="M750 203.7L747 205.7L761 257.7Z" fill="#a6d9d2" stroke="#a6d9d2"></path><path d="M761 257.7L747 205.7L728 234.3Z" fill="#b2e2db" stroke="#b2e2db"></path><path d="M747 205.7L750 203.7L754 181Z" fill="#c4eee9" stroke="#c4eee9"></path><path d="M0 52L18 114.3L51 78Z" fill="#d0f7f2" stroke="#d0f7f2"></path><path d="M41 163.3L48 244.3L86 187.7Z" fill="#b2e2db" stroke="#b2e2db"></path><path d="M37 252.7L48 244.3L0 238.7Z" fill="#acddd6" stroke="#acddd6"></path><path d="M782 65L771 24.3L718 75.7Z" fill="#a6d9d2" stroke="#a6d9d2"></path><path d="M725 -13.7L805 0L711 -29.3Z" fill="#acddd6" stroke="#acddd6"></path><path d="M794 106L782 65L718 75.7Z" fill="#c4eee9" stroke="#c4eee9"></path><path d="M794 106L718 75.7L754 181Z" fill="#d6fbf6" stroke="#d6fbf6"></path><path d="M0 238.7L48 244.3L41 163.3Z" fill="#a6d9d2" stroke="#a6d9d2"></path><path d="M48 244.3L37 252.7L126 297.3Z" fill="#dcfffb" stroke="#dcfffb"></path><path d="M0 28.3L0 52L51 78Z" fill="#d0f7f2" stroke="#d0f7f2"></path><path d="M18 114.3L0 130.7L41 163.3Z" fill="#b8e6df" stroke="#b8e6df"></path><path d="M0 52L0 130.7L18 114.3Z" fill="#dcfffb" stroke="#dcfffb"></path><path d="M46 0L0 28.3L51 78Z" fill="#acddd6" stroke="#acddd6"></path><path d="M2 0L0 28.3L46 0Z" fill="#b2e2db" stroke="#b2e2db"></path><path d="M815 134.3L794 106L754 181Z" fill="#d6fbf6" stroke="#d6fbf6"></path><path d="M782 65L795 40L771 24.3Z" fill="#caf2ed" stroke="#caf2ed"></path><path d="M0 0L2 0L56 -6.3Z" fill="#a0d5cd" stroke="#a0d5cd"></path><path d="M56 -6.3L2 0L46 0Z" fill="#acddd6" stroke="#acddd6"></path><path d="M725 250L761 257.7L728 234.3Z" fill="#dcfffb" stroke="#dcfffb"></path><path d="M857 216.3L815 134.3L754 181Z" fill="#a0d5cd" stroke="#a0d5cd"></path><path d="M481 270.3L761 257.7L621 250Z" fill="#beeae4" stroke="#beeae4"></path><path d="M126 297.3L761 257.7L481 270.3Z" fill="#a6d9d2" stroke="#a6d9d2"></path><path d="M814 74.3L795 40L782 65Z" fill="#b2e2db" stroke="#b2e2db"></path><path d="M771 24.3L805 0L725 -13.7Z" fill="#caf2ed" stroke="#caf2ed"></path><path d="M218 -42.3L0 0L56 -6.3Z" fill="#a0d5cd" stroke="#a0d5cd"></path><path d="M2 0L0 0L0 28.3Z" fill="#d6fbf6" stroke="#d6fbf6"></path><path d="M0 52L-16 136.3L0 130.7Z" fill="#beeae4" stroke="#beeae4"></path><path d="M0 130.7L-16 136.3L41 163.3Z" fill="#b2e2db" stroke="#b2e2db"></path><path d="M0 28.3L-16 136.3L0 52Z" fill="#a6d9d2" stroke="#a6d9d2"></path><path d="M0 0L-16 136.3L0 28.3Z" fill="#dcfffb" stroke="#dcfffb"></path><path d="M815 134.3L814 74.3L794 106Z" fill="#b2e2db" stroke="#b2e2db"></path><path d="M794 106L814 74.3L782 65Z" fill="#d0f7f2" stroke="#d0f7f2"></path><path d="M830 0L805 0L795 40Z" fill="#a0d5cd" stroke="#a0d5cd"></path><path d="M795 40L805 0L771 24.3Z" fill="#b8e6df" stroke="#b8e6df"></path><path d="M-16 136.3L0 238.7L41 163.3Z" fill="#a6d9d2" stroke="#a6d9d2"></path><path d="M37 252.7L0 264.3L126 297.3Z" fill="#b8e6df" stroke="#b8e6df"></path><path d="M796 250L754 181L750 203.7Z" fill="#b2e2db" stroke="#b2e2db"></path><path d="M-19 250L0 250L0 238.7Z" fill="#d6fbf6" stroke="#d6fbf6"></path><path d="M0 238.7L0 250L37 252.7Z" fill="#a0d5cd" stroke="#a0d5cd"></path><path d="M0 250L0 264.3L37 252.7Z" fill="#a6d9d2" stroke="#a6d9d2"></path><path d="M-19 250L0 264.3L0 250Z" fill="#c4eee9" stroke="#c4eee9"></path><path d="M761 257.7L796 250L750 203.7Z" fill="#d0f7f2" stroke="#d0f7f2"></path><path d="M-16 136.3L-19 250L0 238.7Z" fill="#a0d5cd" stroke="#a0d5cd"></path><path d="M839 44.7L830 0L795 40Z" fill="#a0d5cd" stroke="#a0d5cd"></path><path d="M805 0L860 -12.7L711 -29.3Z" fill="#a0d5cd" stroke="#a0d5cd"></path><path d="M839 44.7L795 40L814 74.3Z" fill="#a6d9d2" stroke="#a6d9d2"></path><path d="M893 98.7L814 74.3L815 134.3Z" fill="#a0d5cd" stroke="#a0d5cd"></path><path d="M893 98.7L839 44.7L814 74.3Z" fill="#d6fbf6" stroke="#d6fbf6"></path><path d="M761 257.7L828 250L796 250Z" fill="#a0d5cd" stroke="#a0d5cd"></path><path d="M796 250L857 216.3L754 181Z" fill="#b2e2db" stroke="#b2e2db"></path><path d="M839 44.7L860 -12.7L830 0Z" fill="#a0d5cd" stroke="#a0d5cd"></path><path d="M830 0L860 -12.7L805 0Z" fill="#a0d5cd" stroke="#a0d5cd"></path><path d="M711 -29.3L860 -12.7L566 -57.3Z" fill="#b8e6df" stroke="#b8e6df"></path><path d="M900 39.3L860 -12.7L839 44.7Z" fill="#d0f7f2" stroke="#d0f7f2"></path><path d="M828 250L857 216.3L796 250Z" fill="#beeae4" stroke="#beeae4"></path><path d="M900 161.7L893 98.7L815 134.3Z" fill="#b8e6df" stroke="#b8e6df"></path><path d="M935 104.3L900 89.7L893 98.7Z" fill="#a0d5cd" stroke="#a0d5cd"></path><path d="M893 98.7L900 89.7L839 44.7Z" fill="#acddd6" stroke="#acddd6"></path><path d="M900 89.7L900 39.3L839 44.7Z" fill="#a6d9d2" stroke="#a6d9d2"></path><path d="M857 216.3L900 161.7L815 134.3Z" fill="#d0f7f2" stroke="#d0f7f2"></path><path d="M900 39.3L900 0L860 -12.7Z" fill="#d0f7f2" stroke="#d0f7f2"></path><path d="M900 208L900 190.3L857 216.3Z" fill="#a0d5cd" stroke="#a0d5cd"></path><path d="M857 216.3L900 190.3L900 161.7Z" fill="#caf2ed" stroke="#caf2ed"></path><path d="M929 0L906 11.7L900 39.3Z" fill="#c4eee9" stroke="#c4eee9"></path><path d="M900 39.3L906 11.7L900 0Z" fill="#dcfffb" stroke="#dcfffb"></path><path d="M935 104.3L900 39.3L900 89.7Z" fill="#a0d5cd" stroke="#a0d5cd"></path><path d="M935 104.3L893 98.7L900 161.7Z" fill="#b2e2db" stroke="#b2e2db"></path><path d="M900 250L900 208L857 216.3Z" fill="#a6d9d2" stroke="#a6d9d2"></path><path d="M953 250L935 104.3L900 161.7Z" fill="#b2e2db" stroke="#b2e2db"></path><path d="M761 257.7L900 250L828 250Z" fill="#caf2ed" stroke="#caf2ed"></path><path d="M828 250L900 250L857 216.3Z" fill="#caf2ed" stroke="#caf2ed"></path><path d="M953 250L900 161.7L900 190.3Z" fill="#d6fbf6" stroke="#d6fbf6"></path><path d="M953 250L900 250L761 257.7Z" fill="#c4eee9" stroke="#c4eee9"></path><path d="M953 250L900 190.3L900 208Z" fill="#dcfffb" stroke="#dcfffb"></path><path d="M935 104.3L929 0L900 39.3Z" fill="#b8e6df" stroke="#b8e6df"></path><path d="M906 11.7L929 0L900 0Z" fill="#b2e2db" stroke="#b2e2db"></path><path d="M900 0L929 0L860 -12.7Z" fill="#c4eee9" stroke="#c4eee9"></path><path d="M126 297.3L953 250L761 257.7Z" fill="#a0d5cd" stroke="#a0d5cd"></path><path d="M900 250L953 250L900 208Z" fill="#c4eee9" stroke="#c4eee9"></path><path d="M935 104.3L953 250L929 0Z" fill="#c4eee9" stroke="#c4eee9"></path></g></svg>